<?xml version="1.0" encoding="UTF-8"?><svg id="Capa_2" xmlns="http://www.w3.org/2000/svg" viewBox="0 0 747.57 623.2"><defs><style>.cls-1{fill:#585858;}.cls-1,.cls-2,.cls-3,.cls-4{stroke-width:0px;}.cls-2{fill:#70b1b0;}.cls-5{letter-spacing:-.03em;}.cls-3{fill:#fce900;}.cls-3,.cls-4{fill-rule:evenodd;}.cls-4{fill:#6ac4d1;}.cls-6{letter-spacing:-.05em;}.cls-7{font-size:184.42px;}.cls-8{font-size:114.96px;}.cls-9{fill:#fff;font-family:BoldenVan, BoldenVan;}.cls-10{letter-spacing:-.03em;}</style></defs><g id="Capa_1-2"><path class="cls-3" d="M104.23,252.63C370.77-32.82,736.39-52.53,747.09,75.44c10.71,127.99-162.42,276.53-248.52,480.26-86.1,203.73-584.41-99.53-394.34-303.07Z"/><path class="cls-4" d="M298.57,218.79c-54.06,99.45-98.03,212.99-186.73,164.77C23.15,335.34-32.81,200.49,21.25,101.04,75.31,1.59,218.91-24.79,307.61,23.42c88.7,48.21,45.02,95.91-9.04,195.36Z"/><path class="cls-1" d="M185.48,424.77c-1.62-.86-2.87-2.06-3.74-3.6s-1.31-3.33-1.31-5.37v-15.97h6.75v15.93c0,1.28.34,2.26,1.03,2.93.69.68,1.67,1.01,2.95,1.01s2.26-.34,2.95-1.01c.69-.68,1.03-1.65,1.03-2.93v-15.93h6.75v15.97c0,2.04-.44,3.83-1.31,5.37-.87,1.54-2.12,2.74-3.74,3.6s-3.52,1.29-5.68,1.29-4.06-.43-5.68-1.29Z"/><path class="cls-1" d="M229.52,399.84v25.89h-2.73l-13.02-13.17.07,4.65v8.45h-6.64v-25.93h2.73l13.06,12.76-.11-4.57v-8.08h6.64Z"/><path class="cls-1" d="M265.71,399.84v.41l-11.32,25.67h-2.95l-11.44-25.67v-.41h7.23l3.28,7.67,2.4,6.97,2.29-6.97,3.25-7.67h7.27Z"/><path class="cls-1" d="M275.15,399.84v25.82h-6.75v-25.82h6.75Z"/><path class="cls-1" d="M304.73,425.29v.37h-7.27l-1.48-3.28h-9.74l-1.44,3.28h-7.27v-.37l12.14-25.71h2.95l12.1,25.71ZM288.73,416.55h4.76l-2.32-6.31-2.43,6.31Z"/><path class="cls-1" d="M309.77,424.83c-1.44-.82-2.56-1.99-3.36-3.5-.8-1.51-1.2-3.25-1.2-5.22v-1.99h6.38v2.07c0,1.11.28,1.97.83,2.6.55.63,1.31.94,2.27.94s1.73-.31,2.31-.94c.58-.63.87-1.49.87-2.6v-16.34h6.75v16.27c0,1.97-.42,3.71-1.25,5.22-.84,1.51-2,2.68-3.5,3.5-1.5.82-3.22,1.24-5.16,1.24s-3.49-.41-4.92-1.24Z"/><path class="cls-1" d="M346.38,419.61v6.05h-16.45v-25.82h16.12v6.01h-9.41v3.84h8.67v5.9h-8.67v4.02h9.74Z"/><path class="cls-1" d="M377.01,401.44c2,1.07,3.56,2.58,4.67,4.54s1.66,4.2,1.66,6.73-.55,4.82-1.66,6.79c-1.11,1.97-2.66,3.49-4.67,4.56-2,1.07-4.31,1.6-6.92,1.6h-10.25v-25.82h10.25c2.61,0,4.91.53,6.92,1.6ZM374.76,417.78c1.12-1.22,1.68-2.91,1.68-5.07s-.56-3.81-1.68-5.02c-1.12-1.2-2.69-1.81-4.7-1.81h-3.47v13.72h3.47c2.02,0,3.58-.61,4.7-1.83Z"/><path class="cls-1" d="M403.96,419.61v6.05h-16.45v-25.82h16.12v6.01h-9.41v3.84h8.67v5.9h-8.67v4.02h9.74Z"/><path class="cls-1" d="M197.73,442.61h-6.23v19.77h-6.75v-19.77h-6.23v-6.05h19.22v6.05Z"/><path class="cls-1" d="M223.4,462.2v.18h-7.56l-4.35-7.97h-3.61v7.97h-6.75v-25.82h10.99c1.92,0,3.62.38,5.11,1.14,1.49.76,2.65,1.83,3.49,3.21.84,1.38,1.25,2.96,1.25,4.76,0,1.55-.37,2.96-1.11,4.24-.74,1.28-1.77,2.3-3.1,3.06l5.64,9.22ZM207.87,448.7h3.91c1.06,0,1.88-.28,2.47-.85.59-.57.89-1.34.89-2.32s-.3-1.75-.89-2.3c-.59-.55-1.41-.83-2.47-.83h-3.91v6.31Z"/><path class="cls-1" d="M251.1,462.01v.37h-7.27l-1.48-3.28h-9.74l-1.44,3.28h-7.27v-.37l12.14-25.71h2.95l12.1,25.71ZM235.09,453.27h4.76l-2.32-6.31-2.43,6.31Z"/><path class="cls-1" d="M275.82,436.56v25.89h-2.73l-13.02-13.17.07,4.65v8.45h-6.64v-25.93h2.73l13.06,12.76-.11-4.57v-8.08h6.64Z"/><path class="cls-1" d="M282.88,460.48c-1.88-1.54-2.82-3.67-2.82-6.4h6.6c0,.89.34,1.57,1.03,2.07.69.49,1.67.74,2.95.74,1.2,0,2.14-.2,2.8-.61.66-.41,1-.96,1-1.68s-.36-1.2-1.09-1.53c-.73-.33-1.9-.58-3.52-.76-3.37-.37-5.8-1.27-7.29-2.69-1.49-1.43-2.23-3.29-2.23-5.61,0-1.52.42-2.88,1.27-4.08.85-1.19,2.03-2.12,3.56-2.79,1.52-.66,3.28-1,5.27-1s3.75.35,5.27,1.05c1.52.7,2.71,1.69,3.56,2.97.85,1.28,1.27,2.75,1.27,4.43h-6.49c0-.81-.31-1.44-.94-1.9s-1.49-.68-2.6-.68-1.96.2-2.56.59c-.6.39-.9.94-.9,1.62s.29,1.17.89,1.51c.59.34,1.61.59,3.06.74,3.61.37,6.23,1.25,7.86,2.64,1.62,1.39,2.43,3.28,2.43,5.66,0,1.57-.44,2.97-1.33,4.19-.89,1.22-2.13,2.16-3.73,2.82s-3.43,1-5.5,1c-3.34,0-5.96-.77-7.84-2.31Z"/><path class="cls-1" d="M312.11,442.61v4.13h8.26v5.94h-8.26v9.7h-6.75v-25.82h16.12v6.05h-9.37Z"/><path class="cls-1" d="M330.68,461.09c-2.05-1.13-3.66-2.71-4.81-4.72-1.16-2.02-1.73-4.32-1.73-6.9s.58-4.88,1.73-6.9c1.16-2.02,2.76-3.59,4.81-4.72,2.05-1.13,4.38-1.7,6.99-1.7s4.94.57,6.99,1.7,3.66,2.71,4.81,4.72c1.16,2.02,1.73,4.32,1.73,6.9s-.58,4.88-1.73,6.9c-1.16,2.02-2.76,3.59-4.81,4.72-2.05,1.13-4.38,1.7-6.99,1.7s-4.94-.57-6.99-1.7ZM342.49,454.47c1.22-1.27,1.83-2.93,1.83-5s-.61-3.73-1.83-5-2.82-1.9-4.81-1.9-3.6.63-4.81,1.88-1.83,2.93-1.83,5.02.61,3.73,1.83,5,2.82,1.9,4.81,1.9,3.6-.63,4.81-1.9Z"/><path class="cls-1" d="M377.66,462.2v.18h-7.56l-4.35-7.97h-3.61v7.97h-6.75v-25.82h10.99c1.92,0,3.62.38,5.11,1.14,1.49.76,2.65,1.83,3.49,3.21s1.25,2.96,1.25,4.76c0,1.55-.37,2.96-1.11,4.24-.74,1.28-1.77,2.3-3.1,3.06l5.64,9.22ZM362.13,448.7h3.91c1.06,0,1.88-.28,2.47-.85.59-.57.89-1.34.89-2.32s-.3-1.75-.89-2.3c-.59-.55-1.41-.83-2.47-.83h-3.91v6.31Z"/><path class="cls-1" d="M407.98,436.49v25.89h-6.75v-7.16l.15-5.72-6.49,6.6h-.48l-6.46-6.6.11,5.72v7.16h-6.75v-25.89h2.73l10.62,11.18,10.59-11.18h2.73Z"/><path class="cls-1" d="M437.56,462.01v.37h-7.27l-1.48-3.28h-9.74l-1.44,3.28h-7.27v-.37l12.14-25.71h2.95l12.1,25.71ZM421.55,453.27h4.76l-2.32-6.31-2.43,6.31Z"/><path class="cls-1" d="M444.2,461.09c-1.97-1.13-3.5-2.71-4.61-4.72-1.11-2.02-1.66-4.32-1.66-6.9s.55-4.88,1.66-6.9,2.64-3.59,4.61-4.72,4.21-1.7,6.71-1.7c3.34,0,6.1.88,8.28,2.64,2.18,1.76,3.61,4.14,4.3,7.14h-6.71c-.52-1.06-1.26-1.88-2.23-2.47-.97-.59-2.1-.88-3.38-.88-1.89,0-3.42.63-4.59,1.88-1.17,1.25-1.75,2.93-1.75,5.02s.58,3.73,1.75,5c1.17,1.27,2.7,1.9,4.59,1.9,1.38,0,2.58-.34,3.6-1.01s1.76-1.62,2.23-2.82h6.64c-.61,3.15-2.03,5.64-4.24,7.49-2.21,1.84-5.04,2.77-8.48,2.77-2.51,0-4.75-.57-6.71-1.7Z"/><path class="cls-1" d="M474.19,436.56v25.82h-6.75v-25.82h6.75Z"/><path class="cls-1" d="M484.91,461.09c-2.05-1.13-3.66-2.71-4.81-4.72-1.16-2.02-1.73-4.32-1.73-6.9s.58-4.88,1.73-6.9c1.16-2.02,2.76-3.59,4.81-4.72,2.05-1.13,4.38-1.7,6.99-1.7s4.94.57,6.99,1.7c2.05,1.13,3.66,2.71,4.81,4.72s1.73,4.32,1.73,6.9-.58,4.88-1.73,6.9c-1.16,2.02-2.76,3.59-4.81,4.72-2.05,1.13-4.38,1.7-6.99,1.7s-4.94-.57-6.99-1.7ZM496.71,454.47c1.22-1.27,1.83-2.93,1.83-5s-.61-3.73-1.83-5c-1.22-1.27-2.82-1.9-4.81-1.9s-3.6.63-4.81,1.88c-1.22,1.25-1.83,2.93-1.83,5.02s.61,3.73,1.83,5c1.22,1.27,2.82,1.9,4.81,1.9s3.6-.63,4.81-1.9ZM494.15,426.12l4.98,2.25v.33l-5.42,4.94h-4.8v-.3l5.24-7.23Z"/><path class="cls-1" d="M531.92,436.56v25.89h-2.73l-13.02-13.17.07,4.65v8.45h-6.64v-25.93h2.73l13.06,12.76-.11-4.57v-8.08h6.64Z"/><path class="cls-1" d="M185.55,497.82c-1.97-1.13-3.5-2.71-4.61-4.72-1.11-2.02-1.66-4.32-1.66-6.9s.55-4.88,1.66-6.9c1.11-2.02,2.64-3.59,4.61-4.72,1.97-1.13,4.21-1.7,6.71-1.7,3.34,0,6.1.88,8.28,2.64,2.18,1.76,3.61,4.14,4.3,7.14h-6.71c-.52-1.06-1.26-1.88-2.23-2.47-.97-.59-2.1-.88-3.38-.88-1.89,0-3.42.63-4.59,1.88-1.17,1.25-1.75,2.93-1.75,5.02s.58,3.73,1.75,5c1.17,1.27,2.7,1.9,4.59,1.9,1.38,0,2.58-.34,3.6-1.01,1.02-.68,1.76-1.62,2.23-2.82h6.64c-.61,3.15-2.03,5.64-4.24,7.49-2.21,1.84-5.04,2.77-8.48,2.77-2.51,0-4.75-.57-6.71-1.7Z"/><path class="cls-1" d="M213.97,497.82c-2.05-1.13-3.66-2.71-4.81-4.72-1.16-2.02-1.73-4.32-1.73-6.9s.58-4.88,1.73-6.9c1.16-2.02,2.76-3.59,4.81-4.72,2.05-1.13,4.38-1.7,6.99-1.7s4.94.57,6.99,1.7,3.66,2.71,4.81,4.72c1.16,2.02,1.73,4.32,1.73,6.9s-.58,4.88-1.73,6.9c-1.16,2.02-2.76,3.59-4.81,4.72-2.05,1.13-4.38,1.7-6.99,1.7s-4.94-.57-6.99-1.7ZM225.78,491.2c1.22-1.27,1.83-2.93,1.83-5s-.61-3.73-1.83-5-2.82-1.9-4.81-1.9-3.6.63-4.81,1.88-1.83,2.93-1.83,5.02.61,3.73,1.83,5,2.82,1.9,4.81,1.9,3.6-.63,4.81-1.9Z"/><path class="cls-1" d="M265.34,473.22v25.89h-6.75v-7.16l.15-5.72-6.49,6.6h-.48l-6.46-6.6.11,5.72v7.16h-6.75v-25.89h2.73l10.62,11.18,10.59-11.18h2.73Z"/><path class="cls-1" d="M275.7,498.22c-1.62-.86-2.87-2.06-3.74-3.6s-1.31-3.33-1.31-5.37v-15.97h6.75v15.93c0,1.28.34,2.26,1.03,2.93.69.68,1.67,1.01,2.95,1.01s2.26-.34,2.95-1.01c.69-.68,1.03-1.65,1.03-2.93v-15.93h6.75v15.97c0,2.04-.44,3.83-1.31,5.37-.87,1.54-2.12,2.74-3.74,3.6s-3.52,1.29-5.68,1.29-4.06-.43-5.68-1.29Z"/><path class="cls-1" d="M319.75,473.29v25.89h-2.73l-13.02-13.17.07,4.65v8.45h-6.64v-25.93h2.73l13.06,12.76-.11-4.57v-8.08h6.64Z"/><path class="cls-1" d="M342.36,479.34h-6.23v19.77h-6.75v-19.77h-6.23v-6.05h19.22v6.05Z"/><path class="cls-1" d="M367.88,498.74v.37h-7.27l-1.48-3.28h-9.74l-1.44,3.28h-7.27v-.37l12.14-25.71h2.95l12.1,25.71ZM351.88,490h4.76l-2.32-6.31-2.43,6.31Z"/><path class="cls-1" d="M392.56,498.92v.18h-7.56l-4.35-7.97h-3.62v7.97h-6.75v-25.82h10.99c1.92,0,3.62.38,5.11,1.14,1.49.76,2.65,1.83,3.49,3.21.84,1.38,1.25,2.96,1.25,4.76,0,1.55-.37,2.96-1.11,4.24-.74,1.28-1.77,2.3-3.1,3.06l5.64,9.22ZM377.03,485.42h3.91c1.06,0,1.88-.28,2.47-.85.59-.57.88-1.34.88-2.32s-.29-1.75-.88-2.3c-.59-.55-1.42-.83-2.47-.83h-3.91v6.31Z"/><path class="cls-1" d="M402.96,473.29v25.82h-6.75v-25.82h6.75Z"/><path class="cls-1" d="M432.55,498.74v.37h-7.27l-1.48-3.28h-9.74l-1.44,3.28h-7.27v-.37l12.14-25.71h2.95l12.1,25.71ZM416.54,490h4.76l-2.32-6.31-2.43,6.31Z"/><text class="cls-9" transform="translate(153.64 210.53)"><tspan class="cls-8"><tspan class="cls-5" x="0" y="0">C</tspan><tspan x="69.9" y="0">ALIMA</tspan></tspan><tspan class="cls-7"><tspan x="0" y="155.68">T</tspan><tspan class="cls-6" x="104.56" y="155.68">E</tspan><tspan class="cls-10" x="196.22" y="155.68">C</tspan><tspan x="308.35" y="155.68">A</tspan></tspan></text><path class="cls-2" d="M190.92,228.07c-8.16,0-15.63-1.62-22.19-4.83-7.13-3.48-13.21-8.28-18.06-14.27-4.57-5.64-8.09-12.17-10.47-19.41-2.15-6.54-3.41-13.29-3.75-20.09-.11-1.05-.16-2.08-.16-3.09v-1.72c0-7.16.97-14.24,2.9-21.04,2.06-7.29,5.29-13.94,9.6-19.75,4.57-6.17,10.39-11.2,17.3-14.93,7.08-3.83,15.25-5.89,24.27-6.11.41-.01.8-.01,1.2-.01,4.42,0,8.83.6,13.13,1.78,4.78,1.32,9.32,3.36,13.52,6.08,4.27,2.77,8.12,6.28,11.45,10.43,3.29,4.09,6.01,8.9,8.11,14.3.02.06.05.12.07.19,2.09,5.58,1.87,11.61-.63,16.98-2.35,5.03-6.3,8.86-11.43,11.1-.13.06-.25.11-.38.16l-1.64.67,1.26.39c5.91,1.64,10.81,5.72,13.58,11.31,2.68,5.27,3.1,11.31,1.18,17.06-.06.19-.13.37-.19.55-1.46,3.92-3.46,7.82-5.96,11.57-2.64,3.95-5.83,7.55-9.5,10.71-3.76,3.24-8.05,5.95-12.77,8.05-5.14,2.29-10.81,3.59-16.86,3.84-1.2.07-2.4.1-3.57.1Z"/><path class="cls-2" d="M228.06,226.84c-.48,0-.97-.03-1.45-.08-6.52-.62-12.19-3.77-15.97-8.89-3.89-5.22-5.3-11.58-3.97-17.92.05-.25.11-.5.17-.75l19.54-76.22c.04-.15.08-.29.12-.44,1.32-4.65,4.02-8.65,7.81-11.57,3.86-2.98,8.47-4.56,13.34-4.59,0,0,28.93-.35,29-.35,5.04,0,9.79,1.63,13.73,4.72,4.04,3.17,6.75,7.44,7.88,12.39l18.33,76.2c1.69,6.73.13,13.69-4.3,19.14-4.32,5.32-10.41,8.25-17.14,8.25h-20.23c-4.61,0-8.95-1.37-12.67-3.98-3.81,2.83-8.34,4.32-13.2,4.32-.06,0-21-.23-21-.23ZM271.93,201.03h0Z"/><path class="cls-2" d="M307.25,226.38c-6-.03-11.59-2.43-15.76-6.78-4-4.16-6.21-9.64-6.21-15.4,0-.03.46-77.55.46-77.55.02-5.87,2.31-11.38,6.46-15.53,3.9-3.9,9.07-6.22,14.58-6.55.34-.02.69-.03,1.03-.03h9.6c1.85,0,3.7.02,5.55.06,1.6.04,3.06.05,4.39.05,5.9,0,11.44,2.29,15.6,6.46,4.17,4.17,6.46,9.71,6.46,15.6,0,.04-.24,37.99-.24,37.99.27.02.54.04.8.08,5.32.63,10.05,2.97,13.69,6.77,3.9,4.09,6.05,9.41,6.09,15.02,0,0,.23,17.89.23,17.97,0,6.12-2.42,11.77-6.82,15.96-4.14,4.01-9.58,6.22-15.36,6.22-.05,0-40.56-.35-40.56-.35Z"/><path class="cls-2" d="M362.41,226.61c-5.83,0-11.37-2.34-15.62-6.59-4.15-4.15-6.45-9.7-6.45-15.59l.23-77.54c0-5.92,2.29-11.5,6.46-15.67,4.17-4.17,9.71-6.46,15.6-6.46.06,0,23.8.23,23.8.23,5.92.03,11.46,2.32,15.6,6.46,4.33,4.33,6.57,10.08,6.34,16.24l-1.38,77.15c0,.24-.01.48-.03.72-.33,5.5-2.65,10.68-6.55,14.58-4.16,4.17-9.71,6.46-15.6,6.46h-22.42Z"/><path class="cls-2" d="M400.91,226.38c-5.78-.03-11.28-2.37-15.49-6.59-4.16-4.16-6.45-9.7-6.45-15.59,0-.09,1.27-78.25,1.27-78.25.05-5.82,2.34-11.28,6.45-15.41,4.14-4.14,9.62-6.43,15.46-6.47,0,0,27.32-.35,27.4-.35,4.88,0,9.49,1.54,13.33,4.47.06.05.13.1.19.15.15-.12.3-.25.46-.37,3.83-3.01,8.44-4.61,13.29-4.61.3,0,.61,0,.91.02l25.14.45c5.81.05,11.24,2.32,15.32,6.39,3.86,3.87,6.16,8.96,6.5,14.35,0,.11,3.46,78.54,3.46,78.54.29,5.71-1.64,11.28-5.43,15.7-.29.33-.59.66-.9.97-4.14,4.14-9.67,6.43-15.58,6.46,0,0-19.96.23-20.02.23-5.76,0-11.19-2.16-15.28-6.09-.97-.93-1.85-1.93-2.63-3l-7.65-.09c-.71,1-1.52,1.95-2.4,2.84-4.17,4.17-9.75,6.46-15.72,6.46-.06,0-21.62-.23-21.62-.23Z"/><path class="cls-2" d="M499.02,226.84c-.48,0-.97-.03-1.45-.08-6.52-.62-12.19-3.77-15.97-8.89-3.89-5.22-5.3-11.59-3.97-17.93.05-.25.11-.5.17-.75l19.54-76.22c.04-.15.08-.29.12-.43,1.32-4.65,4.02-8.65,7.81-11.57,3.86-2.98,8.47-4.57,13.34-4.6,0,0,28.93-.35,29-.35,5.04,0,9.79,1.63,13.73,4.72,4.04,3.16,6.76,7.44,7.88,12.39l18.33,76.2c1.69,6.73.13,13.69-4.3,19.14-4.32,5.32-10.41,8.25-17.14,8.25h-20.23c-4.61,0-8.95-1.37-12.67-3.98-3.81,2.83-8.34,4.32-13.2,4.32-.06,0-21-.23-21-.23ZM542.89,201.03h0Z"/><path class="cls-2" d="M185.81,383.02c-6.47,0-12.59-2.51-17.27-7.07-4.98-4.73-7.72-11.12-7.72-18.04,0-.13,0-.25,0-.38l1.48-67.85h-.11c-.35.02-.7.03-1.05.03-6.02,0-11.78-2.24-16.66-6.47-.31-.27-.61-.55-.9-.84-4.7-4.7-7.29-11.03-7.29-17.8,0-.06.37-33.21.37-33.21,0-.27.01-.54.03-.81.37-6.36,2.94-12.11,7.45-16.61,4.69-4.69,10.92-7.28,17.54-7.3,0,0,83.4-.55,83.43-.55,6.92,0,13.31,2.74,18.04,7.73,4.55,4.68,7.05,10.9,7.05,17.56,0,.16,0,.32,0,.48l-.92,33.38c0,.2-.02.41-.03.61-.38,6.07-2.8,11.6-7,15.98-3.91,4.09-8.89,6.62-14.5,7.41l2.52,65.96c0,.22.01.44.01.66,0,6.61-2.4,12.6-6.94,17.34-4.22,4.4-9.67,7.1-15.77,7.82-.4.05-.8.08-1.21.1l-39.22,1.84c-.45.02-.9.04-1.35.04Z"/><path class="cls-2" d="M265.68,382.82c-6.76-.02-13.08-2.73-17.79-7.64-4.54-4.73-7.04-10.93-7.04-17.45l.37-123.43c0-6.47,2.47-12.64,6.95-17.31,4.61-4.81,10.84-7.5,17.56-7.55l76.78-1.47c.11,0,.22,0,.33,0,6.77,0,13.1,2.59,17.8,7.29,4.83,4.83,7.48,11.09,7.48,17.62v21.95c0,6.51-2.46,12.67-6.94,17.35-3.44,3.59-7.65,5.99-12.36,7.09.2,1.3.3,2.62.3,3.97,0,.36-.01.73-.03,1.09,0,0-1.31,20.81-1.33,20.97,4.69.94,8.99,3.19,12.45,6.55,4.98,4.73,7.73,11.12,7.73,18.04,0,.15,0,.3,0,.45l-.73,28.42c-.08,6.68-2.78,12.91-7.63,17.57-4.82,4.62-10.85,7.05-17.46,7.05-.04,0-76.43-.55-76.43-.55Z"/><path class="cls-2" d="M409.67,383.87c-11.49,0-21.92-2.25-31-6.68-10.06-4.91-18.61-11.66-25.42-20.08-6.53-8.06-11.57-17.42-14.98-27.82-3.18-9.68-5.04-19.69-5.52-29.75-.15-1.42-.23-2.81-.23-4.16v-2.77c0-10.53,1.43-20.93,4.25-30.91,2.96-10.47,7.58-19.99,13.73-28.29,6.41-8.66,14.59-15.72,24.31-20.98,9.89-5.35,21.4-8.23,34.2-8.54.56-.01,1.12-.02,1.67-.02,6.15,0,12.3.83,18.29,2.48,6.62,1.82,12.93,4.66,18.76,8.44,5.91,3.83,11.25,8.7,15.9,14.49,4.6,5.73,8.44,12.52,11.41,20.17.02.06.05.13.07.19,2.36,6.29,2.11,13.09-.7,19.13-2.67,5.72-7.18,10.08-13.03,12.64-.12.05-.25.11-.38.16,0,0-25.35,10.36-25.39,10.38-3.06,1.22-6.24,1.85-9.44,1.85-2.76,0-5.49-.46-8.13-1.38-2.73-.94-5.23-2.32-7.42-4.08-.17,1.41-.25,2.97-.25,4.65,0,.69.02,1.41.06,2.14.04.81.11,1.6.2,2.38,0,.09.02.18.03.27.12,1.29.3,2.34.5,3.18,2.02-1.96,4.38-3.58,7.01-4.8,3.28-1.52,6.72-2.29,10.23-2.29,2.59,0,5.16.42,7.65,1.26l25.34,7.91c6.79,1.82,12.21,6.34,15.38,12.8,3.03,5.94,3.5,12.79,1.31,19.34-.06.18-.12.37-.19.55-2.06,5.54-4.9,11.05-8.47,16.4-3.7,5.54-8.19,10.6-13.35,15.05-5.26,4.53-11.28,8.32-17.91,11.28-7.05,3.15-14.89,4.92-23.28,5.26-1.75.1-3.5.15-5.21.15Z"/><path class="cls-2" d="M469.36,381.9c-.48,0-.97-.03-1.45-.08-7.46-.71-13.92-4.28-18.2-10.07-4.42-5.94-6.03-13.16-4.52-20.36.05-.25.11-.5.17-.75l31.35-122.27c.04-.15.08-.29.12-.44,1.5-5.28,4.56-9.82,8.85-13.13,4.36-3.37,9.58-5.16,15.09-5.19,0,0,46.35-.55,46.42-.55,5.72,0,11.1,1.85,15.57,5.34,4.57,3.58,7.63,8.41,8.89,14.01l29.44,122.36c1.91,7.57.16,15.42-4.84,21.57-4.91,6.04-11.79,9.37-19.37,9.37h-32.46c-5.91,0-11.43-1.99-15.96-5.75-1.76-1.45-3.29-3.11-4.57-4.94-1.24,1.88-2.74,3.6-4.51,5.14-4.59,3.99-10.28,6.1-16.46,6.1-.06,0-33.57-.37-33.57-.37Z"/><text class="cls-9" transform="translate(153.64 210.53)"><tspan class="cls-8"><tspan class="cls-5" x="0" y="0">C</tspan><tspan x="69.9" y="0">ALIMA</tspan></tspan><tspan class="cls-7"><tspan x="0" y="155.68">T</tspan><tspan class="cls-6" x="104.56" y="155.68">E</tspan><tspan class="cls-10" x="196.22" y="155.68">C</tspan><tspan x="308.35" y="155.68">A</tspan></tspan></text></g></svg>